<svg width="121" height="121" viewBox="0 0 121 121" fill="none" xmlns="http://www.w3.org/2000/svg">
<mask id="mask0_1566_171" style="mask-type:alpha" maskUnits="userSpaceOnUse" x="0" y="0" width="121" height="121">
<rect x="0.5" y="0.5" width="120" height="120" fill="#D9D9D9"/>
</mask>
<g mask="url(#mask0_1566_171)">
<path d="M42.8076 103L18 78.2148V42.8076L42.785 18H78.1921L103 42.785V78.1921L78.2148 103H42.8076ZM45.9999 95.4999H74.9999L95.4999 74.9999V45.9999L74.9999 25.4999H45.9999L25.4999 45.9999V74.9999L45.9999 95.4999ZM46.2499 80.019L60.4999 65.769L74.7499 80.019L80.019 74.7499L65.769 60.4999L80.019 46.2499L74.7499 40.9807L60.4999 55.2308L46.2499 40.9807L40.9807 46.2499L55.2308 60.4999L40.9807 74.7499L46.2499 80.019Z" fill="#FF000F"/>
</g>
</svg>
