<svg width="250" height="38" viewBox="0 0 250 38" fill="none" xmlns="http://www.w3.org/2000/svg">
<g clip-path="url(#clip0_1494_108)">
<path d="M10.0016 14.8896C11.6236 14.8896 13.0749 15.23 14.3555 15.9172C15.6361 16.6044 16.6408 17.56 17.3632 18.7774C18.0856 20.0013 18.4468 21.3757 18.4468 22.9007C18.4468 24.55 18.0921 26.003 17.3829 27.2531C16.6737 28.5097 15.6821 29.4784 14.4146 30.1656C13.1472 30.8528 11.7024 31.1931 10.0935 31.1931H6.28464V37.4501H0V14.8896H10.0016ZM10.9472 25.2961C11.3215 25.054 11.6171 24.7202 11.8403 24.3013C12.0636 23.8824 12.1753 23.4177 12.1753 22.9072C12.1753 22.5211 12.0636 22.1349 11.8403 21.7553C11.6171 21.3757 11.3215 21.0615 10.9407 20.8128C10.5663 20.5641 10.1658 20.4398 9.73889 20.4398H6.27807V25.6626H9.72576C10.1658 25.6561 10.5729 25.5383 10.9472 25.2961Z" fill="white"/>
<path d="M30.7596 14.8896C32.3883 14.8896 33.8461 15.2169 35.1201 15.8779C36.3941 16.539 37.3923 17.4553 38.1147 18.6399C38.8371 19.8245 39.1983 21.1793 39.1983 22.7043C39.1983 24.1638 38.8436 25.4728 38.1344 26.6248C37.4252 27.7832 36.4467 28.6799 35.2055 29.3213L39.7696 37.4501H32.5918L29.0653 30.303H27.9358H26.9705V37.4567H20.6924V14.8896H30.7596ZM31.7118 24.7856C32.0862 24.5827 32.3883 24.2947 32.605 23.9282C32.8217 23.5617 32.9267 23.1559 32.9267 22.6978C32.9267 22.3247 32.8151 21.9582 32.5918 21.6048C32.3686 21.2513 32.073 20.9634 31.6987 20.7474C31.3244 20.5314 30.9238 20.4267 30.4904 20.4267H26.9639V25.0867H30.4772C30.9238 25.0932 31.331 24.9951 31.7118 24.7856Z" fill="white"/>
<path d="M46.757 36.4097C44.8591 35.3494 43.3553 33.9095 42.2454 32.09C41.1356 30.2705 40.584 28.2874 40.584 26.1406C40.584 23.9808 41.1356 22.0042 42.2454 20.1913C43.3553 18.3849 44.8591 16.9515 46.757 15.8913C48.6549 14.831 50.73 14.3074 52.9825 14.3074C55.2219 14.3074 57.2971 14.8375 59.1884 15.8913C61.0797 16.945 62.5901 18.3783 63.7065 20.1913C64.8229 22.0042 65.3811 23.9808 65.3811 26.1406C65.3811 28.2874 64.8229 30.2705 63.7065 32.09C62.5901 33.9095 61.0862 35.3494 59.1884 36.4097C57.2905 37.47 55.2219 38.0001 52.9825 38.0001C50.73 38.0001 48.6549 37.47 46.757 36.4097ZM56.0887 31.5141C57.0278 30.997 57.7699 30.264 58.3084 29.3346C58.8534 28.3987 59.1227 27.3384 59.1227 26.1603C59.1227 24.9822 58.8534 23.9154 58.3084 22.986C57.7633 22.0501 57.0212 21.3236 56.0887 20.8065C55.1496 20.2895 54.1186 20.0277 52.9825 20.0277C51.8464 20.0277 50.8154 20.2895 49.8763 20.8065C48.9372 21.3236 48.1952 22.0566 47.6567 22.986C47.1116 23.9219 46.8424 24.9822 46.8424 26.1603C46.8424 27.3384 47.1182 28.3987 47.6632 29.328C48.2149 30.2574 48.9569 30.9839 49.896 31.5075C50.8351 32.0311 51.8661 32.2929 52.9825 32.2929C54.1186 32.2929 55.1496 32.0377 56.0887 31.5141Z" fill="white"/>
<path d="M68.0479 14.8896H73.5773L79.9539 23.8628L86.4618 14.8896H91.919V37.4501H85.6606V24.8314L80.7156 31.9654H79.1855L74.3259 24.766V37.4567H68.0479V14.8896V14.8896Z" fill="white"/>
<path d="M100.758 36.4097C98.8601 35.3494 97.3562 33.9095 96.2464 32.09C95.1366 30.2705 94.585 28.2874 94.585 26.1406C94.585 23.9808 95.1366 22.0042 96.2464 20.1913C97.3562 18.3849 98.8601 16.9515 100.758 15.8913C102.656 14.8375 104.731 14.3074 106.984 14.3074C109.223 14.3074 111.298 14.8375 113.189 15.8913C115.087 16.945 116.591 18.3783 117.707 20.1913C118.824 21.9977 119.382 23.9808 119.382 26.1406C119.382 28.2874 118.824 30.2705 117.707 32.09C116.591 33.9095 115.087 35.3494 113.189 36.4097C111.291 37.47 109.223 38.0001 106.984 38.0001C104.731 38.0001 102.656 37.47 100.758 36.4097ZM110.09 31.5141C111.029 30.997 111.771 30.264 112.309 29.3346C112.854 28.3987 113.124 27.3384 113.124 26.1603C113.124 24.9822 112.854 23.9154 112.309 22.986C111.764 22.0501 111.022 21.3236 110.09 20.8065C109.151 20.2895 108.12 20.0277 106.984 20.0277C105.847 20.0277 104.816 20.2895 103.877 20.8065C102.938 21.3236 102.196 22.0566 101.658 22.986C101.113 23.9219 100.843 24.9822 100.843 26.1603C100.843 27.3384 101.119 28.3987 101.664 29.328C102.209 30.2574 102.958 30.9839 103.897 31.5075C104.836 32.0311 105.867 32.2929 106.984 32.2929C108.12 32.2929 109.151 32.0377 110.09 31.5141Z" fill="white"/>
<path d="M126.763 36.4029C124.918 35.3361 123.454 33.8962 122.363 32.0833C121.273 30.2703 120.722 28.2872 120.722 26.147C120.722 23.9872 121.273 22.0106 122.37 20.1976C123.467 18.3847 124.951 16.9579 126.822 15.8976C128.694 14.8373 130.73 14.3137 132.943 14.3137C134.585 14.3137 136.24 14.6606 137.914 15.3478C139.589 16.035 141.02 17.0364 142.216 18.3454C143.417 19.6479 144.146 21.1794 144.415 22.94H138.026C137.507 21.9975 136.798 21.2776 135.911 20.7736C135.025 20.2696 133.974 20.0209 132.766 20.0209C131.708 20.0209 130.743 20.2631 129.87 20.7409C128.996 21.2252 128.293 21.9255 127.775 22.8483C127.256 23.7712 126.993 24.8773 126.993 26.1601C126.993 27.4887 127.249 28.6079 127.768 29.5307C128.287 30.447 128.983 31.1408 129.856 31.6055C130.736 32.0702 131.702 32.2993 132.772 32.2993C133.928 32.2993 134.92 32.0898 135.76 31.6709C136.601 31.2521 137.172 30.5976 137.481 29.714H132.536V24.838H144.54C144.586 27.6131 144.146 29.9889 143.227 31.9655C142.307 33.942 140.955 35.4408 139.182 36.4684C137.408 37.4959 135.274 38.013 132.792 38.013C130.605 37.9999 128.602 37.4698 126.763 36.4029Z" fill="white"/>
<path d="M157.254 14.8896C158.882 14.8896 160.34 15.2169 161.614 15.8779C162.888 16.539 163.886 17.4553 164.609 18.6399C165.331 19.8245 165.692 21.1793 165.692 22.7043C165.692 24.1638 165.338 25.4728 164.629 26.6248C163.919 27.7832 162.941 28.6799 161.7 29.3213L166.264 37.4501H159.086L155.559 30.2965H154.43H153.465V37.4501H147.187V14.8896H157.254ZM158.206 24.7856C158.58 24.5827 158.882 24.2947 159.099 23.9282C159.316 23.5617 159.421 23.1559 159.421 22.6978C159.421 22.3247 159.309 21.9582 159.086 21.6048C158.863 21.2513 158.567 20.9634 158.193 20.7474C157.819 20.5314 157.418 20.4267 156.985 20.4267H153.458V25.0867H156.971C157.418 25.0932 157.825 24.9951 158.206 24.7856Z" fill="white"/>
<path d="M173.251 36.4097C171.353 35.3494 169.849 33.9095 168.74 32.09C167.63 30.2705 167.078 28.2874 167.078 26.1406C167.078 23.9808 167.63 22.0042 168.74 20.1913C169.849 18.3849 171.353 16.9515 173.251 15.8913C175.149 14.831 177.224 14.3074 179.477 14.3074C181.716 14.3074 183.791 14.8375 185.682 15.8913C187.574 16.945 189.084 18.3783 190.201 20.1913C191.317 22.0042 191.875 23.9808 191.875 26.1406C191.875 28.2874 191.317 30.2705 190.201 32.09C189.084 33.9095 187.58 35.3494 185.682 36.4097C183.785 37.47 181.716 38.0001 179.477 38.0001C177.224 38.0001 175.149 37.47 173.251 36.4097ZM182.583 31.5141C183.522 30.997 184.264 30.264 184.803 29.3346C185.348 28.3987 185.617 27.3384 185.617 26.1603C185.617 24.9822 185.348 23.9154 184.803 22.986C184.257 22.0501 183.515 21.3236 182.583 20.8065C181.644 20.2895 180.613 20.0277 179.477 20.0277C178.347 20.0277 177.31 20.2895 176.37 20.8065C175.431 21.3236 174.689 22.0566 174.151 22.986C173.612 23.9154 173.336 24.9822 173.336 26.1603C173.336 27.3384 173.612 28.3987 174.157 29.328C174.702 30.2574 175.451 30.9839 176.39 31.5075C177.329 32.0311 178.36 32.2929 179.477 32.2929C180.613 32.2929 181.644 32.0377 182.583 31.5141Z" fill="white"/>
<path d="M199.205 36.8741C197.648 36.1215 196.433 35.0481 195.54 33.6475C194.654 32.2469 194.207 30.6172 194.207 28.7584V14.8896H200.465V28.2937C200.465 29.5111 200.807 30.4863 201.496 31.2324C202.186 31.9785 203.158 32.345 204.412 32.345C205.647 32.345 206.606 31.972 207.295 31.2259C207.985 30.4797 208.326 29.498 208.326 28.2806V14.8896H214.604V28.7584C214.604 30.5255 214.19 32.116 213.356 33.5166C212.522 34.9237 211.334 36.0168 209.797 36.8087C208.254 37.6006 206.461 37.9933 204.419 37.9933C202.495 37.9999 200.761 37.6268 199.205 36.8741Z" fill="white"/>
<path d="M228.269 14.8896C229.891 14.8896 231.343 15.23 232.623 15.9172C233.904 16.6044 234.909 17.56 235.631 18.7774C236.353 20.0013 236.715 21.3757 236.715 22.9007C236.715 24.55 236.36 26.003 235.651 27.2531C234.942 28.5097 233.95 29.4784 232.682 30.1656C231.415 30.8528 229.97 31.1931 228.361 31.1931H224.552V37.4501H218.274V14.8896H228.269ZM229.209 25.2961C229.583 25.054 229.878 24.7202 230.102 24.3013C230.325 23.8824 230.437 23.4177 230.437 22.9072C230.437 22.5211 230.325 22.1349 230.102 21.7553C229.878 21.3757 229.583 21.0615 229.202 20.8128C228.828 20.5641 228.427 20.4398 228 20.4398H224.539V25.6626H227.987C228.427 25.6561 228.834 25.5383 229.209 25.2961Z" fill="white"/>
<path d="M232.314 0H230.312V10.7534H232.314V0Z" fill="white"/>
<path d="M225.918 4.37878V6.375L236.708 6.375V4.37878L225.918 4.37878Z" fill="white"/>
<path d="M250.001 16.3017L248.585 14.8901L240.956 22.4938L242.372 23.9053L250.001 16.3017Z" fill="white"/>
<path d="M242.367 14.8883L240.951 16.2998L248.581 23.9035L249.997 22.492L242.367 14.8883Z" fill="white"/>
<path d="M245.515 7.72955C246.817 7.72955 247.872 6.67758 247.872 5.37991C247.872 4.08224 246.817 3.03027 245.515 3.03027C244.213 3.03027 243.157 4.08224 243.157 5.37991C243.157 6.67758 244.213 7.72955 245.515 7.72955Z" fill="white"/>
</g>
<defs>
<clipPath id="clip0_1494_108">
<rect width="250" height="38" fill="white"/>
</clipPath>
</defs>
</svg>
