<svg width="1520" height="909" viewBox="0 0 1520 909" fill="none" xmlns="http://www.w3.org/2000/svg">
<path d="M11.3212 0H8.67876V8.67956H0V11.3223H8.67876V20.0019H11.3212V11.3223H20V8.67956H11.3212V0ZM11.3212 888.528H8.67876V897.208H0V899.85H8.67876V908.53H11.3212V899.85H20V897.208H11.3212V888.528ZM11.3212 761.599H8.67876V770.279H0V772.922H8.67876V781.601H11.3212V772.922H20V770.279H11.3212V761.599ZM11.3212 634.644H8.67876V643.324H0V645.967H8.67876V654.646H11.3212V645.967H20V643.324H11.3212V634.644ZM11.3212 507.716H8.67876V516.395H0V519.038H8.67876V527.717H11.3212V519.038H20V516.395H11.3212V507.716ZM11.3212 380.787H8.67876V389.466H0V392.109H8.67876V400.788H11.3212V392.109H20V389.466H11.3212V380.787ZM11.3212 253.858H8.67876V262.537H0V265.18H8.67876V273.86H11.3212V265.18H20V262.537H11.3212V253.858ZM11.3212 126.929H8.67876V135.608H0V138.251H8.67876V146.931H11.3212V138.251H20V135.608H11.3212V126.929Z" fill="url(#paint0_linear_1495_342)"/>
<path d="M11.3212 888.684H8.67876V897.363H0V900.006H8.67876V908.685H11.3212V900.006H20V897.363H11.3212V888.684Z" fill="url(#paint1_linear_1495_342)"/>
<path d="M111.321 0H108.679V8.67956H100V11.3223H108.679V20.0019H111.321V11.3223H120V8.67956H111.321V0ZM111.321 888.528H108.679V897.208H100V899.85H108.679V908.53H111.321V899.85H120V897.208H111.321V888.528ZM111.321 761.599H108.679V770.279H100V772.922H108.679V781.601H111.321V772.922H120V770.279H111.321V761.599ZM111.321 634.644H108.679V643.324H100V645.967H108.679V654.646H111.321V645.967H120V643.324H111.321V634.644ZM111.321 507.716H108.679V516.395H100V519.038H108.679V527.717H111.321V519.038H120V516.395H111.321V507.716ZM111.321 380.787H108.679V389.466H100V392.109H108.679V400.788H111.321V392.109H120V389.466H111.321V380.787ZM111.321 253.858H108.679V262.537H100V265.18H108.679V273.86H111.321V265.18H120V262.537H111.321V253.858ZM111.321 126.929H108.679V135.608H100V138.251H108.679V146.931H111.321V138.251H120V135.608H111.321V126.929Z" fill="url(#paint2_linear_1495_342)"/>
<path d="M111.321 888.684H108.679V897.363H100V900.006H108.679V908.685H111.321V900.006H120V897.363H111.321V888.684Z" fill="url(#paint3_linear_1495_342)"/>
<path d="M211.321 0H208.679V8.67956H200V11.3223H208.679V20.0019H211.321V11.3223H220V8.67956H211.321V0ZM211.321 888.528H208.679V897.208H200V899.85H208.679V908.53H211.321V899.85H220V897.208H211.321V888.528ZM211.321 761.599H208.679V770.279H200V772.922H208.679V781.601H211.321V772.922H220V770.279H211.321V761.599ZM211.321 634.644H208.679V643.324H200V645.967H208.679V654.646H211.321V645.967H220V643.324H211.321V634.644ZM211.321 507.716H208.679V516.395H200V519.038H208.679V527.717H211.321V519.038H220V516.395H211.321V507.716ZM211.321 380.787H208.679V389.466H200V392.109H208.679V400.788H211.321V392.109H220V389.466H211.321V380.787ZM211.321 253.858H208.679V262.537H200V265.18H208.679V273.86H211.321V265.18H220V262.537H211.321V253.858ZM211.321 126.929H208.679V135.608H200V138.251H208.679V146.931H211.321V138.251H220V135.608H211.321V126.929Z" fill="url(#paint4_linear_1495_342)"/>
<path d="M211.321 888.684H208.679V897.363H200V900.006H208.679V908.685H211.321V900.006H220V897.363H211.321V888.684Z" fill="url(#paint5_linear_1495_342)"/>
<path d="M311.321 0H308.679V8.67956H300V11.3223H308.679V20.0019H311.321V11.3223H320V8.67956H311.321V0ZM311.321 888.528H308.679V897.208H300V899.85H308.679V908.53H311.321V899.85H320V897.208H311.321V888.528ZM311.321 761.599H308.679V770.279H300V772.922H308.679V781.601H311.321V772.922H320V770.279H311.321V761.599ZM311.321 634.644H308.679V643.324H300V645.967H308.679V654.646H311.321V645.967H320V643.324H311.321V634.644ZM311.321 507.716H308.679V516.395H300V519.038H308.679V527.717H311.321V519.038H320V516.395H311.321V507.716ZM311.321 380.787H308.679V389.466H300V392.109H308.679V400.788H311.321V392.109H320V389.466H311.321V380.787ZM311.321 253.858H308.679V262.537H300V265.18H308.679V273.86H311.321V265.18H320V262.537H311.321V253.858ZM311.321 126.929H308.679V135.608H300V138.251H308.679V146.931H311.321V138.251H320V135.608H311.321V126.929Z" fill="url(#paint6_linear_1495_342)"/>
<path d="M311.321 888.684H308.679V897.363H300V900.006H308.679V908.685H311.321V900.006H320V897.363H311.321V888.684Z" fill="url(#paint7_linear_1495_342)"/>
<path d="M411.321 0H408.679V8.67956H400V11.3223H408.679V20.0019H411.321V11.3223H420V8.67956H411.321V0ZM411.321 888.528H408.679V897.208H400V899.85H408.679V908.53H411.321V899.85H420V897.208H411.321V888.528ZM411.321 761.599H408.679V770.279H400V772.922H408.679V781.601H411.321V772.922H420V770.279H411.321V761.599ZM411.321 634.644H408.679V643.324H400V645.967H408.679V654.646H411.321V645.967H420V643.324H411.321V634.644ZM411.321 507.716H408.679V516.395H400V519.038H408.679V527.717H411.321V519.038H420V516.395H411.321V507.716ZM411.321 380.787H408.679V389.466H400V392.109H408.679V400.788H411.321V392.109H420V389.466H411.321V380.787ZM411.321 253.858H408.679V262.537H400V265.18H408.679V273.86H411.321V265.18H420V262.537H411.321V253.858ZM411.321 126.929H408.679V135.608H400V138.251H408.679V146.931H411.321V138.251H420V135.608H411.321V126.929Z" fill="url(#paint8_linear_1495_342)"/>
<path d="M411.321 888.684H408.679V897.363H400V900.006H408.679V908.685H411.321V900.006H420V897.363H411.321V888.684Z" fill="url(#paint9_linear_1495_342)"/>
<path d="M511.321 0H508.679V8.67956H500V11.3223H508.679V20.0019H511.321V11.3223H520V8.67956H511.321V0ZM511.321 888.528H508.679V897.208H500V899.85H508.679V908.53H511.321V899.85H520V897.208H511.321V888.528ZM511.321 761.599H508.679V770.279H500V772.922H508.679V781.601H511.321V772.922H520V770.279H511.321V761.599ZM511.321 634.644H508.679V643.324H500V645.967H508.679V654.646H511.321V645.967H520V643.324H511.321V634.644ZM511.321 507.716H508.679V516.395H500V519.038H508.679V527.717H511.321V519.038H520V516.395H511.321V507.716ZM511.321 380.787H508.679V389.466H500V392.109H508.679V400.788H511.321V392.109H520V389.466H511.321V380.787ZM511.321 253.858H508.679V262.537H500V265.18H508.679V273.86H511.321V265.18H520V262.537H511.321V253.858ZM511.321 126.929H508.679V135.608H500V138.251H508.679V146.931H511.321V138.251H520V135.608H511.321V126.929Z" fill="url(#paint10_linear_1495_342)"/>
<path d="M511.321 888.684H508.679V897.363H500V900.006H508.679V908.685H511.321V900.006H520V897.363H511.321V888.684Z" fill="url(#paint11_linear_1495_342)"/>
<path d="M611.321 0H608.679V8.67956H600V11.3223H608.679V20.0019H611.321V11.3223H620V8.67956H611.321V0ZM611.321 888.528H608.679V897.208H600V899.85H608.679V908.53H611.321V899.85H620V897.208H611.321V888.528ZM611.321 761.599H608.679V770.279H600V772.922H608.679V781.601H611.321V772.922H620V770.279H611.321V761.599ZM611.321 634.644H608.679V643.324H600V645.967H608.679V654.646H611.321V645.967H620V643.324H611.321V634.644ZM611.321 507.716H608.679V516.395H600V519.038H608.679V527.717H611.321V519.038H620V516.395H611.321V507.716ZM611.321 380.787H608.679V389.466H600V392.109H608.679V400.788H611.321V392.109H620V389.466H611.321V380.787ZM611.321 253.858H608.679V262.537H600V265.18H608.679V273.86H611.321V265.18H620V262.537H611.321V253.858ZM611.321 126.929H608.679V135.608H600V138.251H608.679V146.931H611.321V138.251H620V135.608H611.321V126.929Z" fill="url(#paint12_linear_1495_342)"/>
<path d="M611.321 888.684H608.679V897.363H600V900.006H608.679V908.685H611.321V900.006H620V897.363H611.321V888.684Z" fill="url(#paint13_linear_1495_342)"/>
<path d="M711.321 0H708.679V8.67956H700V11.3223H708.679V20.0019H711.321V11.3223H720V8.67956H711.321V0ZM711.321 888.528H708.679V897.208H700V899.85H708.679V908.53H711.321V899.85H720V897.208H711.321V888.528ZM711.321 761.599H708.679V770.279H700V772.922H708.679V781.601H711.321V772.922H720V770.279H711.321V761.599ZM711.321 634.644H708.679V643.324H700V645.967H708.679V654.646H711.321V645.967H720V643.324H711.321V634.644ZM711.321 507.716H708.679V516.395H700V519.038H708.679V527.717H711.321V519.038H720V516.395H711.321V507.716ZM711.321 380.787H708.679V389.466H700V392.109H708.679V400.788H711.321V392.109H720V389.466H711.321V380.787ZM711.321 253.858H708.679V262.537H700V265.18H708.679V273.86H711.321V265.18H720V262.537H711.321V253.858ZM711.321 126.929H708.679V135.608H700V138.251H708.679V146.931H711.321V138.251H720V135.608H711.321V126.929Z" fill="url(#paint14_linear_1495_342)"/>
<path d="M711.321 888.684H708.679V897.363H700V900.006H708.679V908.685H711.321V900.006H720V897.363H711.321V888.684Z" fill="url(#paint15_linear_1495_342)"/>
<path d="M811.321 0H808.679V8.67956H800V11.3223H808.679V20.0019H811.321V11.3223H820V8.67956H811.321V0ZM811.321 888.528H808.679V897.208H800V899.85H808.679V908.53H811.321V899.85H820V897.208H811.321V888.528ZM811.321 761.599H808.679V770.279H800V772.922H808.679V781.601H811.321V772.922H820V770.279H811.321V761.599ZM811.321 634.644H808.679V643.324H800V645.967H808.679V654.646H811.321V645.967H820V643.324H811.321V634.644ZM811.321 507.716H808.679V516.395H800V519.038H808.679V527.717H811.321V519.038H820V516.395H811.321V507.716ZM811.321 380.787H808.679V389.466H800V392.109H808.679V400.788H811.321V392.109H820V389.466H811.321V380.787ZM811.321 253.858H808.679V262.537H800V265.18H808.679V273.86H811.321V265.18H820V262.537H811.321V253.858ZM811.321 126.929H808.679V135.608H800V138.251H808.679V146.931H811.321V138.251H820V135.608H811.321V126.929Z" fill="url(#paint16_linear_1495_342)"/>
<path d="M811.321 888.684H808.679V897.363H800V900.006H808.679V908.685H811.321V900.006H820V897.363H811.321V888.684Z" fill="url(#paint17_linear_1495_342)"/>
<path d="M911.321 0H908.679V8.67956H900V11.3223H908.679V20.0019H911.321V11.3223H920V8.67956H911.321V0ZM911.321 888.528H908.679V897.208H900V899.85H908.679V908.53H911.321V899.85H920V897.208H911.321V888.528ZM911.321 761.599H908.679V770.279H900V772.922H908.679V781.601H911.321V772.922H920V770.279H911.321V761.599ZM911.321 634.644H908.679V643.324H900V645.967H908.679V654.646H911.321V645.967H920V643.324H911.321V634.644ZM911.321 507.716H908.679V516.395H900V519.038H908.679V527.717H911.321V519.038H920V516.395H911.321V507.716ZM911.321 380.787H908.679V389.466H900V392.109H908.679V400.788H911.321V392.109H920V389.466H911.321V380.787ZM911.321 253.858H908.679V262.537H900V265.18H908.679V273.86H911.321V265.18H920V262.537H911.321V253.858ZM911.321 126.929H908.679V135.608H900V138.251H908.679V146.931H911.321V138.251H920V135.608H911.321V126.929Z" fill="url(#paint18_linear_1495_342)"/>
<path d="M911.321 888.684H908.679V897.363H900V900.006H908.679V908.685H911.321V900.006H920V897.363H911.321V888.684Z" fill="url(#paint19_linear_1495_342)"/>
<path d="M1011.32 0H1008.68V8.67956H1000V11.3223H1008.68V20.0019H1011.32V11.3223H1020V8.67956H1011.32V0ZM1011.32 888.528H1008.68V897.208H1000V899.85H1008.68V908.53H1011.32V899.85H1020V897.208H1011.32V888.528ZM1011.32 761.599H1008.68V770.279H1000V772.922H1008.68V781.601H1011.32V772.922H1020V770.279H1011.32V761.599ZM1011.32 634.644H1008.68V643.324H1000V645.967H1008.68V654.646H1011.32V645.967H1020V643.324H1011.32V634.644ZM1011.32 507.716H1008.68V516.395H1000V519.038H1008.68V527.717H1011.32V519.038H1020V516.395H1011.32V507.716ZM1011.32 380.787H1008.68V389.466H1000V392.109H1008.68V400.788H1011.32V392.109H1020V389.466H1011.32V380.787ZM1011.32 253.858H1008.68V262.537H1000V265.18H1008.68V273.86H1011.32V265.18H1020V262.537H1011.32V253.858ZM1011.32 126.929H1008.68V135.608H1000V138.251H1008.68V146.931H1011.32V138.251H1020V135.608H1011.32V126.929Z" fill="url(#paint20_linear_1495_342)"/>
<path d="M1011.32 888.684H1008.68V897.363H1000V900.006H1008.68V908.685H1011.32V900.006H1020V897.363H1011.32V888.684Z" fill="url(#paint21_linear_1495_342)"/>
<path d="M1111.32 0H1108.68V8.67956H1100V11.3223H1108.68V20.0019H1111.32V11.3223H1120V8.67956H1111.32V0ZM1111.32 888.528H1108.68V897.208H1100V899.85H1108.68V908.53H1111.32V899.85H1120V897.208H1111.32V888.528ZM1111.32 761.599H1108.68V770.279H1100V772.922H1108.68V781.601H1111.32V772.922H1120V770.279H1111.32V761.599ZM1111.32 634.644H1108.68V643.324H1100V645.967H1108.68V654.646H1111.32V645.967H1120V643.324H1111.32V634.644ZM1111.32 507.716H1108.68V516.395H1100V519.038H1108.68V527.717H1111.32V519.038H1120V516.395H1111.32V507.716ZM1111.32 380.787H1108.68V389.466H1100V392.109H1108.68V400.788H1111.32V392.109H1120V389.466H1111.32V380.787ZM1111.32 253.858H1108.68V262.537H1100V265.18H1108.68V273.86H1111.32V265.18H1120V262.537H1111.32V253.858ZM1111.32 126.929H1108.68V135.608H1100V138.251H1108.68V146.931H1111.32V138.251H1120V135.608H1111.32V126.929Z" fill="url(#paint22_linear_1495_342)"/>
<path d="M1111.32 888.684H1108.68V897.363H1100V900.006H1108.68V908.685H1111.32V900.006H1120V897.363H1111.32V888.684Z" fill="url(#paint23_linear_1495_342)"/>
<path d="M1211.32 0H1208.68V8.67956H1200V11.3223H1208.68V20.0019H1211.32V11.3223H1220V8.67956H1211.32V0ZM1211.32 888.528H1208.68V897.208H1200V899.85H1208.68V908.53H1211.32V899.85H1220V897.208H1211.32V888.528ZM1211.32 761.599H1208.68V770.279H1200V772.922H1208.68V781.601H1211.32V772.922H1220V770.279H1211.32V761.599ZM1211.32 634.644H1208.68V643.324H1200V645.967H1208.68V654.646H1211.32V645.967H1220V643.324H1211.32V634.644ZM1211.32 507.716H1208.68V516.395H1200V519.038H1208.68V527.717H1211.32V519.038H1220V516.395H1211.32V507.716ZM1211.32 380.787H1208.68V389.466H1200V392.109H1208.68V400.788H1211.32V392.109H1220V389.466H1211.32V380.787ZM1211.32 253.858H1208.68V262.537H1200V265.18H1208.68V273.86H1211.32V265.18H1220V262.537H1211.32V253.858ZM1211.32 126.929H1208.68V135.608H1200V138.251H1208.68V146.931H1211.32V138.251H1220V135.608H1211.32V126.929Z" fill="url(#paint24_linear_1495_342)"/>
<path d="M1211.32 888.684H1208.68V897.363H1200V900.006H1208.68V908.685H1211.32V900.006H1220V897.363H1211.32V888.684Z" fill="url(#paint25_linear_1495_342)"/>
<path d="M1311.32 0H1308.68V8.67956H1300V11.3223H1308.68V20.0019H1311.32V11.3223H1320V8.67956H1311.32V0ZM1311.32 888.528H1308.68V897.208H1300V899.85H1308.68V908.53H1311.32V899.85H1320V897.208H1311.32V888.528ZM1311.32 761.599H1308.68V770.279H1300V772.922H1308.68V781.601H1311.32V772.922H1320V770.279H1311.32V761.599ZM1311.32 634.644H1308.68V643.324H1300V645.967H1308.68V654.646H1311.32V645.967H1320V643.324H1311.32V634.644ZM1311.32 507.716H1308.68V516.395H1300V519.038H1308.68V527.717H1311.32V519.038H1320V516.395H1311.32V507.716ZM1311.32 380.787H1308.68V389.466H1300V392.109H1308.68V400.788H1311.32V392.109H1320V389.466H1311.32V380.787ZM1311.32 253.858H1308.68V262.537H1300V265.18H1308.68V273.86H1311.32V265.18H1320V262.537H1311.32V253.858ZM1311.32 126.929H1308.68V135.608H1300V138.251H1308.68V146.931H1311.32V138.251H1320V135.608H1311.32V126.929Z" fill="url(#paint26_linear_1495_342)"/>
<path d="M1311.32 888.684H1308.68V897.363H1300V900.006H1308.68V908.685H1311.32V900.006H1320V897.363H1311.32V888.684Z" fill="url(#paint27_linear_1495_342)"/>
<path d="M1411.32 0H1408.68V8.67956H1400V11.3223H1408.68V20.0019H1411.32V11.3223H1420V8.67956H1411.32V0ZM1411.32 888.528H1408.68V897.208H1400V899.85H1408.68V908.53H1411.32V899.85H1420V897.208H1411.32V888.528ZM1411.32 761.599H1408.68V770.279H1400V772.922H1408.68V781.601H1411.32V772.922H1420V770.279H1411.32V761.599ZM1411.32 634.644H1408.68V643.324H1400V645.967H1408.68V654.646H1411.32V645.967H1420V643.324H1411.32V634.644ZM1411.32 507.716H1408.68V516.395H1400V519.038H1408.68V527.717H1411.32V519.038H1420V516.395H1411.32V507.716ZM1411.32 380.787H1408.68V389.466H1400V392.109H1408.68V400.788H1411.32V392.109H1420V389.466H1411.32V380.787ZM1411.32 253.858H1408.68V262.537H1400V265.18H1408.68V273.86H1411.32V265.18H1420V262.537H1411.32V253.858ZM1411.32 126.929H1408.68V135.608H1400V138.251H1408.68V146.931H1411.32V138.251H1420V135.608H1411.32V126.929Z" fill="url(#paint28_linear_1495_342)"/>
<path d="M1411.32 888.684H1408.68V897.363H1400V900.006H1408.68V908.685H1411.32V900.006H1420V897.363H1411.32V888.684Z" fill="url(#paint29_linear_1495_342)"/>
<path d="M1511.32 0H1508.68V8.67956H1500V11.3223H1508.68V20.0019H1511.32V11.3223H1520V8.67956H1511.32V0ZM1511.32 888.528H1508.68V897.208H1500V899.85H1508.68V908.53H1511.32V899.85H1520V897.208H1511.32V888.528ZM1511.32 761.599H1508.68V770.279H1500V772.922H1508.68V781.601H1511.32V772.922H1520V770.279H1511.32V761.599ZM1511.32 634.644H1508.68V643.324H1500V645.967H1508.68V654.646H1511.32V645.967H1520V643.324H1511.32V634.644ZM1511.32 507.716H1508.68V516.395H1500V519.038H1508.68V527.717H1511.32V519.038H1520V516.395H1511.32V507.716ZM1511.32 380.787H1508.68V389.466H1500V392.109H1508.68V400.788H1511.32V392.109H1520V389.466H1511.32V380.787ZM1511.32 253.858H1508.68V262.537H1500V265.18H1508.68V273.86H1511.32V265.18H1520V262.537H1511.32V253.858ZM1511.32 126.929H1508.68V135.608H1500V138.251H1508.68V146.931H1511.32V138.251H1520V135.608H1511.32V126.929Z" fill="url(#paint30_linear_1495_342)"/>
<path d="M1511.32 888.684H1508.68V897.363H1500V900.006H1508.68V908.685H1511.32V900.006H1520V897.363H1511.32V888.684Z" fill="url(#paint31_linear_1495_342)"/>
<defs>
<linearGradient id="paint0_linear_1495_342" x1="1093.26" y1="1725.55" x2="325.012" y2="32.4401" gradientUnits="userSpaceOnUse">
<stop stop-color="#818181" stop-opacity="0.7"/>
<stop offset="1" stop-color="white" stop-opacity="0.2"/>
</linearGradient>
<linearGradient id="paint1_linear_1495_342" x1="1093.26" y1="1725.55" x2="325.012" y2="32.4401" gradientUnits="userSpaceOnUse">
<stop stop-color="#818181" stop-opacity="0.7"/>
<stop offset="1" stop-color="white" stop-opacity="0.2"/>
</linearGradient>
<linearGradient id="paint2_linear_1495_342" x1="1193.26" y1="1725.55" x2="425.012" y2="32.4401" gradientUnits="userSpaceOnUse">
<stop stop-color="#818181" stop-opacity="0.7"/>
<stop offset="1" stop-color="white" stop-opacity="0.2"/>
</linearGradient>
<linearGradient id="paint3_linear_1495_342" x1="1193.26" y1="1725.55" x2="425.012" y2="32.4401" gradientUnits="userSpaceOnUse">
<stop stop-color="#818181" stop-opacity="0.7"/>
<stop offset="1" stop-color="white" stop-opacity="0.2"/>
</linearGradient>
<linearGradient id="paint4_linear_1495_342" x1="1293.26" y1="1725.55" x2="525.012" y2="32.4401" gradientUnits="userSpaceOnUse">
<stop stop-color="#818181" stop-opacity="0.7"/>
<stop offset="1" stop-color="white" stop-opacity="0.2"/>
</linearGradient>
<linearGradient id="paint5_linear_1495_342" x1="1293.26" y1="1725.55" x2="525.012" y2="32.4401" gradientUnits="userSpaceOnUse">
<stop stop-color="#818181" stop-opacity="0.7"/>
<stop offset="1" stop-color="white" stop-opacity="0.2"/>
</linearGradient>
<linearGradient id="paint6_linear_1495_342" x1="1393.26" y1="1725.55" x2="625.012" y2="32.4401" gradientUnits="userSpaceOnUse">
<stop stop-color="#818181" stop-opacity="0.7"/>
<stop offset="1" stop-color="white" stop-opacity="0.2"/>
</linearGradient>
<linearGradient id="paint7_linear_1495_342" x1="1393.26" y1="1725.55" x2="625.012" y2="32.4401" gradientUnits="userSpaceOnUse">
<stop stop-color="#818181" stop-opacity="0.7"/>
<stop offset="1" stop-color="white" stop-opacity="0.2"/>
</linearGradient>
<linearGradient id="paint8_linear_1495_342" x1="1493.26" y1="1725.55" x2="725.012" y2="32.4401" gradientUnits="userSpaceOnUse">
<stop stop-color="#818181" stop-opacity="0.7"/>
<stop offset="1" stop-color="white" stop-opacity="0.2"/>
</linearGradient>
<linearGradient id="paint9_linear_1495_342" x1="1493.26" y1="1725.55" x2="725.012" y2="32.4401" gradientUnits="userSpaceOnUse">
<stop stop-color="#818181" stop-opacity="0.7"/>
<stop offset="1" stop-color="white" stop-opacity="0.2"/>
</linearGradient>
<linearGradient id="paint10_linear_1495_342" x1="1593.26" y1="1725.55" x2="825.012" y2="32.4401" gradientUnits="userSpaceOnUse">
<stop stop-color="#818181" stop-opacity="0.7"/>
<stop offset="1" stop-color="white" stop-opacity="0.2"/>
</linearGradient>
<linearGradient id="paint11_linear_1495_342" x1="1593.26" y1="1725.55" x2="825.012" y2="32.4401" gradientUnits="userSpaceOnUse">
<stop stop-color="#818181" stop-opacity="0.7"/>
<stop offset="1" stop-color="white" stop-opacity="0.2"/>
</linearGradient>
<linearGradient id="paint12_linear_1495_342" x1="1693.26" y1="1725.55" x2="925.012" y2="32.4401" gradientUnits="userSpaceOnUse">
<stop stop-color="#818181" stop-opacity="0.7"/>
<stop offset="1" stop-color="white" stop-opacity="0.2"/>
</linearGradient>
<linearGradient id="paint13_linear_1495_342" x1="1693.26" y1="1725.55" x2="925.012" y2="32.4401" gradientUnits="userSpaceOnUse">
<stop stop-color="#818181" stop-opacity="0.7"/>
<stop offset="1" stop-color="white" stop-opacity="0.2"/>
</linearGradient>
<linearGradient id="paint14_linear_1495_342" x1="1793.26" y1="1725.55" x2="1025.01" y2="32.4401" gradientUnits="userSpaceOnUse">
<stop stop-color="#818181" stop-opacity="0.7"/>
<stop offset="1" stop-color="white" stop-opacity="0.2"/>
</linearGradient>
<linearGradient id="paint15_linear_1495_342" x1="1793.26" y1="1725.55" x2="1025.01" y2="32.4401" gradientUnits="userSpaceOnUse">
<stop stop-color="#818181" stop-opacity="0.7"/>
<stop offset="1" stop-color="white" stop-opacity="0.2"/>
</linearGradient>
<linearGradient id="paint16_linear_1495_342" x1="1893.26" y1="1725.55" x2="1125.01" y2="32.4401" gradientUnits="userSpaceOnUse">
<stop stop-color="#818181" stop-opacity="0.7"/>
<stop offset="1" stop-color="white" stop-opacity="0.2"/>
</linearGradient>
<linearGradient id="paint17_linear_1495_342" x1="1893.26" y1="1725.55" x2="1125.01" y2="32.4401" gradientUnits="userSpaceOnUse">
<stop stop-color="#818181" stop-opacity="0.7"/>
<stop offset="1" stop-color="white" stop-opacity="0.2"/>
</linearGradient>
<linearGradient id="paint18_linear_1495_342" x1="1993.26" y1="1725.55" x2="1225.01" y2="32.4401" gradientUnits="userSpaceOnUse">
<stop stop-color="#818181" stop-opacity="0.7"/>
<stop offset="1" stop-color="white" stop-opacity="0.2"/>
</linearGradient>
<linearGradient id="paint19_linear_1495_342" x1="1993.26" y1="1725.55" x2="1225.01" y2="32.4401" gradientUnits="userSpaceOnUse">
<stop stop-color="#818181" stop-opacity="0.7"/>
<stop offset="1" stop-color="white" stop-opacity="0.2"/>
</linearGradient>
<linearGradient id="paint20_linear_1495_342" x1="2093.26" y1="1725.55" x2="1325.01" y2="32.4401" gradientUnits="userSpaceOnUse">
<stop stop-color="#818181" stop-opacity="0.7"/>
<stop offset="1" stop-color="white" stop-opacity="0.2"/>
</linearGradient>
<linearGradient id="paint21_linear_1495_342" x1="2093.26" y1="1725.55" x2="1325.01" y2="32.4401" gradientUnits="userSpaceOnUse">
<stop stop-color="#818181" stop-opacity="0.7"/>
<stop offset="1" stop-color="white" stop-opacity="0.2"/>
</linearGradient>
<linearGradient id="paint22_linear_1495_342" x1="2193.26" y1="1725.55" x2="1425.01" y2="32.4401" gradientUnits="userSpaceOnUse">
<stop stop-color="#818181" stop-opacity="0.7"/>
<stop offset="1" stop-color="white" stop-opacity="0.2"/>
</linearGradient>
<linearGradient id="paint23_linear_1495_342" x1="2193.26" y1="1725.55" x2="1425.01" y2="32.4401" gradientUnits="userSpaceOnUse">
<stop stop-color="#818181" stop-opacity="0.7"/>
<stop offset="1" stop-color="white" stop-opacity="0.2"/>
</linearGradient>
<linearGradient id="paint24_linear_1495_342" x1="2293.26" y1="1725.55" x2="1525.01" y2="32.4401" gradientUnits="userSpaceOnUse">
<stop stop-color="#818181" stop-opacity="0.7"/>
<stop offset="1" stop-color="white" stop-opacity="0.2"/>
</linearGradient>
<linearGradient id="paint25_linear_1495_342" x1="2293.26" y1="1725.55" x2="1525.01" y2="32.4401" gradientUnits="userSpaceOnUse">
<stop stop-color="#818181" stop-opacity="0.7"/>
<stop offset="1" stop-color="white" stop-opacity="0.2"/>
</linearGradient>
<linearGradient id="paint26_linear_1495_342" x1="2393.26" y1="1725.55" x2="1625.01" y2="32.4401" gradientUnits="userSpaceOnUse">
<stop stop-color="#818181" stop-opacity="0.7"/>
<stop offset="1" stop-color="white" stop-opacity="0.2"/>
</linearGradient>
<linearGradient id="paint27_linear_1495_342" x1="2393.26" y1="1725.55" x2="1625.01" y2="32.4401" gradientUnits="userSpaceOnUse">
<stop stop-color="#818181" stop-opacity="0.7"/>
<stop offset="1" stop-color="white" stop-opacity="0.2"/>
</linearGradient>
<linearGradient id="paint28_linear_1495_342" x1="2493.26" y1="1725.55" x2="1725.01" y2="32.4401" gradientUnits="userSpaceOnUse">
<stop stop-color="#818181" stop-opacity="0.7"/>
<stop offset="1" stop-color="white" stop-opacity="0.2"/>
</linearGradient>
<linearGradient id="paint29_linear_1495_342" x1="2493.26" y1="1725.55" x2="1725.01" y2="32.4401" gradientUnits="userSpaceOnUse">
<stop stop-color="#818181" stop-opacity="0.7"/>
<stop offset="1" stop-color="white" stop-opacity="0.2"/>
</linearGradient>
<linearGradient id="paint30_linear_1495_342" x1="2593.26" y1="1725.55" x2="1825.01" y2="32.4401" gradientUnits="userSpaceOnUse">
<stop stop-color="#818181" stop-opacity="0.7"/>
<stop offset="1" stop-color="white" stop-opacity="0.2"/>
</linearGradient>
<linearGradient id="paint31_linear_1495_342" x1="2593.26" y1="1725.55" x2="1825.01" y2="32.4401" gradientUnits="userSpaceOnUse">
<stop stop-color="#818181" stop-opacity="0.7"/>
<stop offset="1" stop-color="white" stop-opacity="0.2"/>
</linearGradient>
</defs>
</svg>
