<svg version="1.1" xmlns="http://www.w3.org/2000/svg" xmlns:xlink="http://www.w3.org/1999/xlink">

    <symbol viewBox="0 0 24 24" id="icon-zoom">
        <path d="M19.6 21L13.3 14.7C12.8 15.1 12.225 15.4167 11.575 15.65C10.925 15.8833 10.2333 16 9.5 16C7.68333 16 6.146 15.371 4.888 14.113C3.62933 12.8543 3 11.3167 3 9.5C3 7.68333 3.62933 6.14567 4.888 4.887C6.146 3.629 7.68333 3 9.5 3C11.3167 3 12.8543 3.629 14.113 4.887C15.371 6.14567 16 7.68333 16 9.5C16 10.2333 15.8833 10.925 15.65 11.575C15.4167 12.225 15.1 12.8 14.7 13.3L21 19.6L19.6 21ZM9.5 14C10.75 14 11.8127 13.5627 12.688 12.688C13.5627 11.8127 14 10.75 14 9.5C14 8.25 13.5627 7.18733 12.688 6.312C11.8127 5.43733 10.75 5 9.5 5C8.25 5 7.18733 5.43733 6.312 6.312C5.43733 7.18733 5 8.25 5 9.5C5 10.75 5.43733 11.8127 6.312 12.688C7.18733 13.5627 8.25 14 9.5 14ZM8.5 12.5V10.5H6.5V8.5H8.5V6.5H10.5V8.5H12.5V10.5H10.5V12.5H8.5Z" />
    </symbol>

    <symbol viewBox="0 0 352 352" id="service-descr">
        <path d="M351.76 120.194H231.29V0H120.194V120.194H0V231.29H120.194V351.76H231.29V231.29H351.76V120.194Z" />
    </symbol>

    <symbol viewBox="0 0 29 29" id="service-descr-1">
        <path d="M14.67 20.34C15.7914 20.34 16.8877 20.0075 17.8201 19.3845C18.7525 18.7614 19.4792 17.8758 19.9084 16.8398C20.3375 15.8037 20.4498 14.6637 20.231 13.5639C20.0123 12.464 19.4723 11.4537 18.6793 10.6607C17.8863 9.86775 16.876 9.32773 15.7762 9.10896C14.6763 8.89018 13.5362 9.00244 12.5002 9.43159C11.4641 9.86074 10.5786 10.5875 9.95557 11.5199C9.33254 12.4523 9 13.5486 9 14.67C9 16.1738 9.59737 17.616 10.6607 18.6793C11.724 19.7427 13.1662 20.34 14.67 20.34Z" />
    </symbol>

    <symbol viewBox="0 0 29 29" id="service-descr-2">
        <path d="M19.92 10H10V19.92H19.92V10Z" />
    </symbol>

    <symbol viewBox="0 0 29 29" id="service-descr-3">
        <path d="M20.76 12.36H16.39V8H12.36V12.36H8V16.39H12.36V20.76H16.39V16.39H20.76V12.36Z" />
    </symbol>

    <symbol viewBox="0 0 29 29" id="service-descr-4">
        <path d="M14.67 12.58C15.0834 12.58 15.4874 12.7026 15.8311 12.9323C16.1748 13.1619 16.4427 13.4883 16.6009 13.8702C16.7591 14.2521 16.8005 14.6723 16.7198 15.0778C16.6392 15.4832 16.4401 15.8555 16.1478 16.1478C15.8556 16.4401 15.4832 16.6392 15.0777 16.7198C14.6723 16.8005 14.2521 16.7591 13.8702 16.6009C13.4883 16.4427 13.1619 16.1748 12.9322 15.8311C12.7026 15.4874 12.58 15.0833 12.58 14.67C12.5826 14.1165 12.8037 13.5865 13.1951 13.1951C13.5864 12.8037 14.1165 12.5826 14.67 12.58ZM14.67 9C13.5486 9 12.4523 9.33254 11.5199 9.95557C10.5875 10.5786 9.86075 11.4641 9.4316 12.5002C9.00245 13.5362 8.89017 14.6763 9.10895 15.7762C9.32773 16.8761 9.86775 17.8864 10.6607 18.6793C11.4537 19.4723 12.464 20.0123 13.5638 20.2311C14.6637 20.4499 15.8038 20.3375 16.8398 19.9084C17.8759 19.4792 18.7614 18.7525 19.3844 17.8201C20.0075 16.8876 20.34 15.7914 20.34 14.67C20.34 13.1662 19.7426 11.724 18.6793 10.6607C17.616 9.59737 16.1738 9 14.67 9Z" />
    </symbol>

    <symbol viewBox="0 0 372 372" id="prefs">
        <path d="M186 117.44C199.56 117.44 212.815 121.461 224.09 128.994C235.365 136.528 244.153 147.235 249.342 159.762C254.531 172.29 255.889 186.077 253.243 199.376C250.598 212.676 244.068 224.891 234.48 234.479C224.891 244.067 212.675 250.598 199.375 253.244C186.076 255.889 172.291 254.531 159.763 249.341C147.235 244.152 136.527 235.364 128.994 224.09C121.46 212.815 117.439 199.559 117.439 185.999C117.526 167.843 124.777 150.455 137.616 137.616C150.455 124.777 167.843 117.526 186 117.44ZM186 0C149.213 0 113.251 10.9087 82.664 31.3466C52.0764 51.7846 28.2362 80.8338 14.1583 114.821C0.0803847 148.808 -3.60276 186.207 3.57409 222.288C10.7509 258.368 28.4657 291.51 54.4783 317.523C80.4909 343.535 113.633 361.25 149.713 368.427C185.793 375.604 223.192 371.919 257.179 357.841C291.166 343.763 320.215 319.923 340.653 289.336C361.091 258.748 372 222.787 372 185.999C372 136.669 352.404 89.3599 317.522 54.4782C282.64 19.5964 235.33 0 186 0Z" />
    </symbol>

    <symbol viewBox="0 0 39 39" id="format-1">
        <path d="M38.27 13.09H25.18V0H13.09V13.09H0V25.18H13.09V38.27H25.18V25.18H38.27V13.09Z" fill="#0000FF" />
        <path d="M9.55034 21.56C9.54044 21.4131 9.56011 21.2657 9.60821 21.1266C9.6563 20.9874 9.73185 20.8594 9.83034 20.75C9.92898 20.6572 10.0454 20.5854 10.1726 20.539C10.2998 20.4926 10.4351 20.4725 10.5703 20.48C10.7118 20.4705 10.8537 20.4895 10.9877 20.5359C11.1217 20.5823 11.245 20.6551 11.3503 20.75C11.4488 20.8594 11.5244 20.9874 11.5725 21.1266C11.6206 21.2657 11.6402 21.4131 11.6303 21.56C11.6381 21.706 11.6165 21.852 11.5666 21.9894C11.5168 22.1269 11.4398 22.2529 11.3403 22.36C11.2399 22.4601 11.1193 22.5378 10.9865 22.5878C10.8538 22.6378 10.7119 22.659 10.5703 22.65C10.4337 22.6548 10.2976 22.6315 10.1703 22.5816C10.043 22.5318 9.92732 22.4563 9.83034 22.36C9.73214 22.2524 9.65669 22.126 9.60857 21.9886C9.56045 21.8511 9.54066 21.7053 9.55034 21.56Z" fill="white" />
        <path d="M15.1497 20.58C15.1571 20.3885 15.0888 20.2017 14.9597 20.06C14.8089 19.9137 14.641 19.7861 14.4597 19.68C14.2597 19.56 14.0496 19.43 13.8196 19.31C13.5917 19.1781 13.3773 19.024 13.1797 18.85C12.9752 18.6613 12.8059 18.4379 12.6797 18.19C12.539 17.8761 12.4739 17.5336 12.4897 17.19C12.4704 16.9063 12.5092 16.6215 12.6038 16.3533C12.6983 16.085 12.8466 15.8389 13.0396 15.63C13.2577 15.4356 13.5126 15.2867 13.7891 15.1923C14.0656 15.0978 14.3582 15.0597 14.6497 15.08C15.0505 15.0788 15.45 15.1258 15.8396 15.22C16.1548 15.2882 16.4581 15.4028 16.7397 15.56L16.3297 16.88C16.1138 16.7947 15.8935 16.7212 15.6696 16.66C15.4223 16.5899 15.1667 16.5529 14.9096 16.55C14.4396 16.55 14.1996 16.75 14.1996 17.14C14.1978 17.2266 14.2147 17.3125 14.2493 17.3919C14.2838 17.4713 14.3351 17.5423 14.3997 17.6C14.5508 17.7328 14.715 17.8501 14.8896 17.95L15.5296 18.31C15.7655 18.4382 15.984 18.5962 16.1797 18.78C16.3858 18.9725 16.5523 19.2036 16.6696 19.46C16.811 19.774 16.8793 20.1159 16.8696 20.46C16.8834 20.7528 16.8363 21.0453 16.7313 21.3189C16.6263 21.5926 16.4657 21.8415 16.2596 22.05C16.0166 22.2684 15.7317 22.4351 15.4223 22.5399C15.1129 22.6448 14.7854 22.6856 14.4597 22.66C14.0682 22.66 13.6783 22.6096 13.2997 22.51C12.9773 22.4399 12.6695 22.3147 12.3896 22.14L12.8596 20.76C13.0851 20.8774 13.3191 20.9777 13.5596 21.06C13.8273 21.1486 14.1077 21.1925 14.3896 21.19C14.5837 21.1944 14.7747 21.1423 14.9396 21.04C15.0089 20.9857 15.0641 20.9156 15.1006 20.8356C15.1372 20.7555 15.154 20.6679 15.1497 20.58Z" fill="white" />
        <path d="M19.9597 19.05L20.1397 20.19H20.1897L20.3497 19.04L21.2397 15.29H23.0897L20.6697 22.56H19.5197L16.9697 15.29H18.9697L19.9597 19.05Z" fill="white" />
        <path d="M28.5996 22.49C28.6711 23.3246 28.4126 24.1539 27.8796 24.8C27.6164 25.0562 27.3024 25.2543 26.9579 25.3818C26.6135 25.5092 26.2461 25.5631 25.8796 25.54C25.4093 25.5544 24.9391 25.5107 24.4796 25.41C24.2106 25.345 23.9516 25.2441 23.7096 25.11L24.0696 23.66C24.2796 23.74 24.5096 23.83 24.7496 23.9C25.0313 23.9861 25.325 24.0266 25.6196 24.02C25.8062 24.0392 25.9946 24.0128 26.1688 23.9431C26.343 23.8735 26.4976 23.7626 26.6196 23.62C26.8296 23.2566 26.9271 22.8389 26.8996 22.42V22.03H26.8496C26.7174 22.2248 26.529 22.3748 26.3096 22.46C26.0333 22.5705 25.7369 22.6216 25.4396 22.61C25.1056 22.629 24.7725 22.5595 24.474 22.4085C24.1755 22.2575 23.9222 22.0303 23.7396 21.75C23.2982 20.9184 23.1006 19.979 23.1696 19.04C23.078 17.9801 23.3534 16.921 23.9496 16.04C24.2206 15.7119 24.5638 15.451 24.9524 15.2775C25.341 15.104 25.7644 15.0227 26.1896 15.04C26.6595 15.0334 27.1289 15.0769 27.5896 15.17C27.9325 15.2299 28.2678 15.3272 28.5896 15.46L28.5996 22.49ZM25.9396 21.14C26.1594 21.1544 26.3768 21.0867 26.5496 20.95C26.7108 20.8091 26.8288 20.6253 26.8896 20.42V16.87C26.7773 16.8181 26.6601 16.7779 26.5396 16.75C26.3867 16.7334 26.2325 16.7334 26.0796 16.75C25.9063 16.7497 25.7365 16.7984 25.5896 16.8904C25.4428 16.9824 25.3249 17.114 25.2496 17.27C25.0187 17.8336 24.9195 18.4423 24.9596 19.05C24.9596 20.41 25.2796 21.14 25.9396 21.14Z" fill="white" />
    </symbol>

    <symbol viewBox="0 0 39 39" id="format-2">
        <path d="M19.4095 38.27C24.4831 38.27 29.3489 36.2545 32.9364 32.6669C36.524 29.0793 38.5395 24.2136 38.5395 19.14C38.5395 14.0655 36.5243 9.19864 32.9371 5.60948C29.3498 2.02032 24.484 0.00263203 19.4095 -1.92328e-05C16.8926 -0.00527915 14.3994 0.485896 12.0726 1.44542C9.74586 2.40494 7.63116 3.81394 5.84961 5.59178C4.06806 7.36961 2.65464 9.48141 1.69026 11.8062C0.725887 14.131 0.229487 16.6231 0.229492 19.14C0.229492 21.653 0.724633 24.1414 1.68663 26.4631C2.64863 28.7847 4.05863 30.8939 5.83607 32.6705C7.61352 34.447 9.72357 35.8559 12.0457 36.8167C14.3678 37.7775 16.8565 38.2713 19.3695 38.27" fill="#0000FF" />
        <path d="M9.31911 22.38C9.30682 22.2329 9.32538 22.0849 9.3736 21.9454C9.42181 21.8059 9.49862 21.6781 9.59911 21.57C9.69775 21.4772 9.81421 21.4055 9.94141 21.359C10.0686 21.3126 10.2039 21.2925 10.3391 21.3C10.4806 21.2905 10.6225 21.3096 10.7565 21.3559C10.8904 21.4023 11.0138 21.4751 11.1191 21.57C11.2158 21.6802 11.2895 21.8086 11.3359 21.9477C11.3823 22.0868 11.4004 22.2338 11.3891 22.38C11.3988 22.5253 11.379 22.6711 11.3309 22.8086C11.2828 22.9461 11.2073 23.0724 11.1091 23.18C11.0087 23.2802 10.8881 23.3579 10.7553 23.4079C10.6226 23.4579 10.4807 23.4791 10.3391 23.47C10.2008 23.4762 10.0628 23.4536 9.93367 23.4037C9.80457 23.3537 9.68725 23.2776 9.58911 23.18C9.3982 22.9587 9.3013 22.6717 9.31911 22.38Z" fill="white" />
        <path d="M12.4995 16.06H13.7794L13.9594 16.88C14.1448 16.5761 14.3981 16.3194 14.6994 16.13C15.0062 15.9642 15.3509 15.8815 15.6994 15.89C16.0229 15.8727 16.3453 15.9402 16.6348 16.0857C16.9242 16.2313 17.1705 16.4499 17.3494 16.72C17.781 17.5726 17.9712 18.527 17.8994 19.48C17.9631 20.5096 17.7232 21.5354 17.2094 22.43C16.9914 22.7558 16.6924 23.0194 16.3418 23.1947C15.9911 23.37 15.6009 23.4511 15.2094 23.43C15.0115 23.4364 14.8135 23.4196 14.6194 23.38C14.4562 23.3438 14.3006 23.2795 14.1594 23.19V26.11H12.4395L12.4995 16.06ZM14.2195 21.65C14.3082 21.7465 14.4176 21.8217 14.5394 21.87C14.6914 21.9181 14.8501 21.9418 15.0094 21.94C15.1945 21.9357 15.3748 21.8802 15.5301 21.7796C15.6855 21.6789 15.8099 21.5371 15.8895 21.37C16.131 20.7533 16.2334 20.0908 16.1895 19.43C16.2152 18.913 16.137 18.3962 15.9594 17.91C15.9064 17.7577 15.808 17.6253 15.6775 17.5306C15.547 17.4358 15.3907 17.3833 15.2294 17.38C14.7494 17.38 14.4294 17.66 14.2294 18.23L14.2195 21.65Z" fill="white" />
        <path d="M21.3591 21.38C21.3612 21.1905 21.2894 21.0076 21.1591 20.87C21.0151 20.7174 20.8501 20.586 20.6691 20.48L20.0291 20.11C19.7956 19.9818 19.5776 19.8276 19.3791 19.65C19.1756 19.4629 19.0093 19.2389 18.8891 18.99C18.7447 18.677 18.6761 18.3344 18.6891 17.99C18.6651 17.699 18.7006 17.4062 18.7934 17.1294C18.8863 16.8526 19.0345 16.5976 19.2291 16.38C19.4486 16.1883 19.7039 16.0419 19.9802 15.9492C20.2565 15.8565 20.5484 15.8194 20.8391 15.84C21.2428 15.836 21.6456 15.8796 22.0391 15.97C22.3506 16.0398 22.6504 16.1543 22.9291 16.31L22.5291 17.64C22.3154 17.5464 22.0947 17.4696 21.8691 17.41C21.6183 17.3401 21.3594 17.3031 21.0991 17.3C20.6291 17.3 20.3991 17.5 20.3991 17.89C20.3953 17.9759 20.4104 18.0615 20.4432 18.141C20.476 18.2204 20.5258 18.2917 20.5891 18.3499C20.7413 18.4861 20.9091 18.6036 21.0891 18.7L21.7291 19.06C21.9596 19.1918 22.1743 19.3496 22.3691 19.53C22.5761 19.724 22.7456 19.9545 22.8691 20.21C23.0066 20.5249 23.0716 20.8666 23.0591 21.21C23.0724 21.5019 23.026 21.7934 22.9229 22.0668C22.8197 22.3402 22.6619 22.5896 22.4591 22.8C22.2151 23.0169 21.9301 23.1827 21.6209 23.2874C21.3117 23.3922 20.9847 23.4339 20.6591 23.41C20.2683 23.4088 19.879 23.3618 19.4991 23.27C19.173 23.1967 18.8619 23.0682 18.5791 22.89L19.0591 21.51C19.2829 21.631 19.5172 21.7314 19.7591 21.81C20.0233 21.8985 20.3004 21.9425 20.5791 21.94C20.7737 21.9495 20.9663 21.8969 21.1291 21.7899C21.1964 21.7439 21.2521 21.683 21.292 21.6118C21.3319 21.5407 21.3549 21.4614 21.3591 21.38Z" fill="white" />
        <path d="M29.1495 20.73C29.1495 21.13 29.1495 21.54 29.1495 21.94C29.1637 22.3886 29.2037 22.8361 29.2695 23.28H28.0596L27.8296 22.44H27.7695C27.6189 22.7599 27.3749 23.0268 27.0697 23.2053C26.7644 23.3838 26.4122 23.4656 26.0596 23.44C25.7237 23.4527 25.39 23.3806 25.0894 23.2303C24.7888 23.08 24.5309 22.8563 24.3395 22.58C23.8517 21.728 23.6321 20.7487 23.7095 19.77C23.6458 18.7607 23.8824 17.755 24.3896 16.88C24.6083 16.5549 24.9074 16.2919 25.2579 16.1166C25.6084 15.9414 25.9982 15.8599 26.3896 15.88C26.584 15.8786 26.7782 15.8953 26.9696 15.93C27.1218 15.9568 27.2698 16.0039 27.4095 16.07V13.18H29.1295L29.1495 20.73ZM26.4696 21.88C26.6924 21.894 26.9128 21.8265 27.0895 21.69C27.2564 21.5375 27.3747 21.3393 27.4295 21.12V17.72C27.3393 17.6324 27.2297 17.5673 27.1096 17.53C26.957 17.4857 26.7984 17.4655 26.6396 17.47C26.4617 17.4664 26.2865 17.5134 26.1342 17.6054C25.982 17.6975 25.859 17.8308 25.7796 17.99C25.5446 18.5769 25.4454 19.2094 25.4895 19.84C25.4647 20.3545 25.5464 20.8685 25.7295 21.35C25.7806 21.5055 25.8798 21.6407 26.0129 21.736C26.1459 21.8313 26.3059 21.8818 26.4696 21.88Z" fill="white" />
    </symbol>

    <symbol viewBox="0 0 37 36" id="format-3">
        <path d="M36.26 0.280029H0.540039V35.99H36.26V0.280029Z" fill="#0000FF" />
        <path d="M8.40008 22.1C8.38973 21.9523 8.41016 21.804 8.46007 21.6646C8.50999 21.5252 8.58832 21.3976 8.69009 21.29C8.78873 21.1973 8.90517 21.1255 9.03237 21.0791C9.15957 21.0327 9.29488 21.0126 9.43008 21.02C9.71542 21.0043 9.99552 21.1013 10.2101 21.29C10.3068 21.4002 10.3805 21.5287 10.4269 21.6678C10.4732 21.8069 10.4913 21.9538 10.4801 22.1C10.4941 22.3929 10.3937 22.6798 10.2001 22.9C10.0997 23.0002 9.97906 23.0779 9.8463 23.1279C9.71355 23.1779 9.57165 23.1991 9.43008 23.19C9.2918 23.1962 9.15375 23.1736 9.02465 23.1237C8.89555 23.0738 8.77821 22.9976 8.68008 22.9C8.48648 22.6798 8.38608 22.3929 8.40008 22.1Z" fill="white" />
        <path d="M11.5901 15.83H12.8701L13.0401 16.65H13.0901C13.2727 16.344 13.5266 16.0867 13.8301 15.9C14.1368 15.7342 14.4815 15.6515 14.8301 15.66C15.1536 15.6427 15.476 15.7102 15.7654 15.8557C16.0548 16.0013 16.3012 16.22 16.4801 16.49C16.9206 17.3398 17.1146 18.2957 17.0401 19.25C17.1071 20.2971 16.8636 21.3407 16.3401 22.25C16.1221 22.5758 15.8231 22.8394 15.4724 23.0147C15.1218 23.19 14.7316 23.2711 14.3401 23.25C14.1441 23.2724 13.9461 23.2724 13.7501 23.25C13.5875 23.212 13.4321 23.1478 13.2901 23.06V25.98H11.5801L11.5901 15.83ZM13.3001 21.42C13.3943 21.5146 13.5065 21.5894 13.6301 21.64C13.7784 21.689 13.9339 21.7127 14.0901 21.71C14.2752 21.7057 14.4554 21.6502 14.6108 21.5496C14.7661 21.449 14.8905 21.3071 14.9701 21.14C15.2126 20.5235 15.3151 19.8609 15.2701 19.2C15.301 18.6828 15.2226 18.1649 15.0401 17.68C14.98 17.5295 14.8745 17.4014 14.7383 17.3136C14.6021 17.2258 14.442 17.1826 14.2801 17.19C14.0389 17.1873 13.8049 17.2718 13.6211 17.428C13.4374 17.5842 13.3163 17.8016 13.2801 18.04L13.3001 21.42Z" fill="white" />
        <path d="M23.1898 20.46C23.1898 20.86 23.1898 21.27 23.1898 21.67C23.1898 22.07 23.2398 22.52 23.2998 23.01H22.0898L21.8598 22.17H21.8098C21.6575 22.4908 21.4117 22.7579 21.1047 22.9364C20.7977 23.1149 20.4439 23.1963 20.0898 23.17C19.754 23.1828 19.4203 23.1106 19.1197 22.9603C18.819 22.81 18.5612 22.5863 18.3698 22.31C17.8819 21.458 17.6624 20.4787 17.7398 19.5C17.6761 18.4906 17.9127 17.4851 18.4198 16.61C18.6392 16.2856 18.9385 16.0232 19.2888 15.848C19.6391 15.6729 20.0287 15.5909 20.4198 15.61C20.6094 15.5916 20.8003 15.5916 20.9898 15.61C21.1456 15.6355 21.2971 15.6825 21.4398 15.75V12.84H23.1498L23.1898 20.46ZM20.5098 21.61C20.7327 21.6241 20.9531 21.5565 21.1298 21.42C21.2999 21.2685 21.4217 21.0703 21.4798 20.85V17.46C21.3879 17.3746 21.2788 17.3098 21.1598 17.27C21.0072 17.2257 20.8487 17.2055 20.6898 17.21C20.5116 17.2113 20.337 17.2602 20.1841 17.3516C20.0311 17.443 19.9054 17.5737 19.8198 17.73C19.5892 18.318 19.4936 18.9502 19.5398 19.58C19.5135 20.097 19.5917 20.614 19.7698 21.1C19.8187 21.2585 19.9168 21.3972 20.0499 21.4961C20.1829 21.595 20.3441 21.6489 20.5098 21.65V21.61Z" fill="white" />
        <path d="M23.9297 15.83H24.7097V15.4601C24.6454 14.7546 24.8255 14.0486 25.2197 13.4601C25.4 13.2533 25.6255 13.0907 25.8786 12.985C26.1318 12.8792 26.4059 12.8331 26.6797 12.8501C27.2185 12.8294 27.7559 12.9178 28.2597 13.1101L27.9497 14.56C27.8 14.4967 27.6415 14.4562 27.4797 14.44H27.0697C26.9571 14.4273 26.8434 14.4516 26.746 14.5094C26.6485 14.5671 26.5725 14.6552 26.5297 14.76C26.4423 15.1198 26.4053 15.4901 26.4197 15.8601H27.6397V17.39H26.4197V23.06H24.7097V17.3601H23.9297V15.83Z" fill="white" />
    </symbol>

    <symbol viewBox="0 0 39 39" id="format-4">
        <path d="M30.0098 0L19.3898 10.62L8.77977 0L0.259766 8.52L10.8798 19.13L0.259766 29.75L8.77977 38.27L19.3898 27.65L30.0098 38.27L38.5298 29.75L27.9098 19.14L38.5298 8.52L30.0098 0Z" fill="#0000FF" />
        <path d="M13.15 21.77C13.14 21.6231 13.1597 21.4757 13.2078 21.3366C13.2559 21.1974 13.3315 21.0694 13.43 20.96C13.5286 20.8672 13.645 20.7955 13.7722 20.7491C13.8994 20.7026 14.0347 20.6825 14.1699 20.69C14.3114 20.6805 14.4533 20.6996 14.5873 20.7459C14.7213 20.7923 14.8446 20.8651 14.9499 20.96C15.0484 21.0694 15.124 21.1974 15.1721 21.3366C15.2202 21.4757 15.2398 21.6231 15.2299 21.77C15.2439 22.0629 15.1435 22.3497 14.9499 22.57C14.8484 22.6715 14.7261 22.7499 14.5915 22.8C14.4569 22.85 14.3132 22.8705 14.1699 22.86C14.0329 22.8687 13.8956 22.8471 13.7678 22.797C13.6399 22.7469 13.5246 22.6694 13.43 22.57C13.3317 22.4624 13.2563 22.3361 13.2082 22.1986C13.1601 22.0611 13.1403 21.9153 13.15 21.77Z" fill="white" />
        <path d="M16.3498 15.89C16.6846 15.6923 17.0494 15.5505 17.4298 15.4701C17.9113 15.3563 18.4051 15.3025 18.8998 15.31C19.2128 15.2737 19.5299 15.3119 19.8253 15.4213C20.1207 15.5308 20.3861 15.7085 20.5998 15.94C20.9597 16.4684 21.1322 17.1021 21.0898 17.74C21.0898 18.19 21.0898 18.64 21.0898 19.07C21.0898 19.5 21.0898 19.9401 21.0398 20.3601C20.9898 20.7801 21.0398 21.18 21.0398 21.57C21.0651 21.943 21.1322 22.312 21.2398 22.6701H19.8398L19.5798 21.77H19.5198C19.3616 22.0488 19.1386 22.2855 18.8698 22.46C18.5677 22.6404 18.2216 22.7339 17.8698 22.7301C17.6189 22.7415 17.3687 22.6972 17.137 22.6004C16.9053 22.5035 16.6979 22.3566 16.5298 22.1701C16.1853 21.7408 16.0108 21.1997 16.0398 20.65C16.0102 20.2871 16.0803 19.9231 16.2424 19.5971C16.4045 19.271 16.6526 18.9955 16.9598 18.8001C17.7272 18.4072 18.5927 18.2473 19.4498 18.34C19.5168 17.9346 19.4825 17.5189 19.3498 17.13C19.2723 16.9992 19.1578 16.8943 19.0208 16.8284C18.8838 16.7626 18.7303 16.7388 18.5798 16.76C18.277 16.7598 17.9752 16.7934 17.6798 16.8601C17.3945 16.9186 17.1185 17.0162 16.8598 17.15L16.3498 15.89ZM18.4098 21.28C18.6352 21.2896 18.8573 21.2226 19.0398 21.09C19.1894 20.9784 19.3124 20.835 19.3998 20.6701V19.4701C19.1905 19.4452 18.9791 19.4452 18.7698 19.4701C18.5872 19.4837 18.408 19.5276 18.2398 19.6001C18.0893 19.6558 17.9599 19.7572 17.8698 19.89C17.7733 20.0386 17.7245 20.213 17.7298 20.39C17.7122 20.6273 17.7756 20.8635 17.9098 21.06C17.9692 21.1343 18.0458 21.1931 18.1328 21.2314C18.2199 21.2697 18.3149 21.2864 18.4098 21.28Z" fill="white" />
        <path d="M22.2199 13.42C22.2157 13.1557 22.3163 12.9004 22.4999 12.71C22.6023 12.6103 22.7249 12.5337 22.8595 12.4854C22.994 12.4371 23.1374 12.4182 23.2799 12.43C23.571 12.4163 23.8566 12.5127 24.0799 12.7C24.1785 12.7915 24.2563 12.9032 24.3081 13.0274C24.3598 13.1516 24.3843 13.2855 24.3799 13.42C24.3863 13.5533 24.3626 13.6863 24.3107 13.8092C24.2588 13.9321 24.1799 14.0417 24.0799 14.13C23.8533 14.3103 23.5692 14.4027 23.2799 14.39C23.1384 14.3994 22.9965 14.3804 22.8625 14.334C22.7285 14.2877 22.6052 14.2149 22.4999 14.12C22.3188 13.9321 22.2183 13.681 22.2199 13.42ZM22.4299 15.42H24.1399V22.62H22.4299V15.42Z" fill="white" />
    </symbol>

    <symbol viewBox="0 0 36 36" id="window-close">
        <path d="M9.6 28.5L7.5 26.4L15.9 18L7.5 9.6L9.6 7.5L18 15.9L26.4 7.5L28.5 9.6L20.1 18L28.5 26.4L26.4 28.5L18 20.1L9.6 28.5Z" />
    </symbol>

    <symbol viewBox="0 0 10 16" id="gallery-next">
        <path d="M1 15L8 8L0.999999 1"  stroke-width="2" />
    </symbol>

    <symbol viewBox="0 0 10 16" id="gallery-prev">
        <path d="M9 1L2 8L9 15" stroke-width="2" />
    </symbol>

    <symbol viewBox="0 0 17 17" id="window-photo-close">
        <path d="M16 1L1 16" stroke-width="1.5" stroke-linecap="round" stroke-linejoin="round" />
        <path d="M1 1L16 16" stroke-width="1.5" stroke-linecap="round" stroke-linejoin="round" />
    </symbol>

    <symbol viewBox="0 0 17 16" id="window-photo-download">
        <path d="M14.167 8L14.167 2.66667C14.167 2.31304 14.0177 1.97391 13.7521 1.72386C13.4864 1.47381 13.126 1.33333 12.7503 1.33333L4.25033 1.33333C3.8746 1.33333 3.51427 1.47381 3.24859 1.72386C2.98292 1.97391 2.83366 2.31305 2.83366 2.66667L2.83366 8" stroke-width="1.5" stroke-linecap="round" stroke-linejoin="round" />
        <path d="M5.66634 11.9998L8.49967 14.6665L11.333 11.9998" stroke-width="1.5" stroke-linecap="round" stroke-linejoin="round" />
        <path d="M8.5 14.6665L8.5 5.99984" stroke-width="1.5" stroke-linecap="round" stroke-linejoin="round" />
    </symbol>

</svg>