<svg width="121" height="121" viewBox="0 0 121 121" fill="none" xmlns="http://www.w3.org/2000/svg">
<mask id="mask0_1566_156" style="mask-type:alpha" maskUnits="userSpaceOnUse" x="0" y="0" width="121" height="121">
<rect x="0.5" y="0.5" width="120" height="120" fill="#D9D9D9"/>
</mask>
<g mask="url(#mask0_1566_156)">
<path d="M53.4038 81.769L87.019 48.1538L81.7499 42.8846L53.4038 71.2308L39.1538 56.9808L33.8846 62.2499L53.4038 81.769ZM60.5082 108C53.9386 108 47.7634 106.753 41.9828 104.26C36.202 101.766 31.1736 98.3827 26.8975 94.1085C22.6213 89.8343 19.236 84.808 16.7416 79.0299C14.2472 73.2518 13 67.0779 13 60.5083C13 53.9386 14.2467 47.7634 16.74 41.9828C19.2333 36.202 22.6171 31.1736 26.8913 26.8975C31.1655 22.6213 36.1917 19.236 41.9699 16.7416C47.748 14.2472 53.9218 13 60.4915 13C67.0612 13 73.2363 14.2467 79.017 16.74C84.7978 19.2333 89.8262 22.6171 94.1023 26.8913C98.3784 31.1655 101.764 36.1917 104.258 41.9699C106.753 47.748 108 53.9218 108 60.4915C108 67.0612 106.753 73.2363 104.26 79.017C101.766 84.7978 98.3827 89.8262 94.1085 94.1023C89.8343 98.3784 84.808 101.764 79.0299 104.258C73.2518 106.753 67.0779 108 60.5082 108ZM60.4999 100.5C71.6665 100.5 81.1249 96.6249 88.8749 88.8749C96.6249 81.1249 100.5 71.6665 100.5 60.4999C100.5 49.3332 96.6249 39.8749 88.8749 32.1249C81.1249 24.3749 71.6665 20.4999 60.4999 20.4999C49.3332 20.4999 39.8749 24.3749 32.1249 32.1249C24.3749 39.8749 20.4999 49.3332 20.4999 60.4999C20.4999 71.6665 24.3749 81.1249 32.1249 88.8749C39.8749 96.6249 49.3332 100.5 60.4999 100.5Z" fill="#32BF00"/>
</g>
</svg>
