<svg width="649" height="287" viewBox="0 0 649 287" fill="none" xmlns="http://www.w3.org/2000/svg">
<g clip-path="url(#clip0_1494_98)">
<path d="M43.2662 113.197C34.3798 105.245 29.9365 94.5448 29.9365 81.0952C29.9385 77.1834 30.2823 73.2791 30.964 69.427C33.9756 52.4948 41.6895 39.0822 54.1059 29.1891C66.5223 19.2961 82.2495 13.1168 101.288 10.6512L103.139 0H141.582L139.638 10.7529C155.424 12.9473 167.766 17.9986 176.665 25.9068C185.564 33.8151 190.007 44.4632 189.995 57.8512C189.99 61.7323 189.646 65.6056 188.967 69.427C187.264 80.1127 182.932 90.209 176.36 98.8102C169.853 107.136 161.55 113.89 152.07 118.569C141.669 123.674 130.471 126.964 118.959 128.295L117.006 139.252H78.5252L80.4876 128.295C64.5475 126.187 52.1404 121.154 43.2662 113.197ZM78.3771 53.6074C73.8289 57.2564 70.9408 62.5635 69.7128 69.5287C69.4055 71.2196 69.2353 72.9326 69.2037 74.6509C69.2037 79.9703 70.8082 84.0477 74.0172 86.8831C77.2262 89.7185 81.4966 91.5677 86.8285 92.4306L94.9282 46.5898C88.8865 47.4245 83.175 49.8461 78.3771 53.6074ZM141.582 85.45C146.062 81.7948 148.917 76.4877 150.145 69.5287C150.454 67.8378 150.627 66.125 150.663 64.4065C150.663 59.0809 149.074 55.0035 145.896 52.1743C142.718 49.345 138.531 47.4959 133.334 46.6267L125.235 92.4953C131.219 91.6587 136.867 89.2247 141.582 85.45Z" fill="white"/>
<path d="M273.676 139.252L287.311 62.2615L217.293 139.252H181.72L206.324 0H244.869L231.336 76.7404L300.937 0.0462285H336.9L312.323 139.252H273.676Z" fill="white"/>
<path d="M404.474 0C413.503 0 421.328 1.69199 427.949 5.07597C434.31 8.1973 439.619 13.1079 443.223 19.2036C446.864 25.5739 448.707 32.8116 448.555 40.1454C448.555 48.4667 446.37 57.3211 442.001 66.7087C437.422 76.3547 430.402 84.6405 421.636 90.7479C412.379 97.3679 400.932 100.678 387.294 100.678H363.744L356.876 139.279H318.238L342.843 0H404.474ZM400.771 63.0289C403.459 60.8736 405.629 58.1439 407.122 55.0405C408.375 52.6798 409.11 50.0794 409.278 47.4126C409.272 45.1977 408.725 43.0176 407.686 41.0608C406.657 39.0493 405.122 37.3387 403.234 36.0957C401.307 34.8483 399.05 34.2043 396.754 34.2466H375.464L369.724 66.5053H390.95C394.533 66.5465 398.014 65.3144 400.771 63.0289Z" fill="white"/>
<path d="M446.647 68.8076H523.33L517.998 99.1155H441.315L446.647 68.8076Z" fill="white"/>
<path d="M32.3524 278.3C22.2617 272.843 13.9505 264.609 8.40514 254.575C2.79555 244.478 -0.00616099 232.977 1.01722e-05 220.069C1.01722e-05 208.469 3.19359 196.508 9.58075 184.186C15.9679 171.865 25.4838 161.54 38.1286 153.213C50.7733 144.867 65.9112 140.694 83.5422 140.694C99.8834 140.694 112.939 143.797 122.707 150.004C132.476 156.211 139.326 163.704 143.257 172.481C147.039 180.595 149.049 189.42 149.154 198.369C149.154 200.08 149.154 201.347 149.052 202.16H110.711C110.303 193.703 107.295 187.231 101.685 182.744C96.0758 178.257 88.8 176.004 79.858 175.985C72.2899 175.834 64.8308 177.803 58.3268 181.671C52.2248 185.335 47.2584 190.615 43.9788 196.927C40.5914 203.457 38.8651 210.719 38.9524 218.072C38.8824 224.026 40.3116 229.901 43.1087 235.159C45.7469 240.17 49.7107 244.362 54.5686 247.28C59.5397 250.235 65.2331 251.759 71.0178 251.681C76.0523 251.694 81.0435 250.752 85.7268 248.907C90.4455 247.042 94.6481 244.074 97.9827 240.253C101.638 236.01 104.183 230.927 105.388 225.46H144.85C141.702 239.865 136.148 251.656 128.187 260.834C120.78 269.62 111.332 276.461 100.667 280.759C90.4185 284.839 79.4864 286.935 68.4537 286.935C54.729 286.935 42.6952 284.057 32.3524 278.3Z" fill="white"/>
<path d="M185.912 178.472H149.107L155.161 144.263H267.103L261.049 178.472H224.356L205.842 283.523H167.362L185.912 178.472Z" fill="white"/>
<path d="M339.538 283.524L353.173 206.496L283.155 283.496H247.581L272.185 144.272H310.731L297.197 220.966L366.808 144.272H402.789L378.185 283.524H339.538Z" fill="white"/>
<path d="M397.161 252.911C398.271 252.927 399.373 252.713 400.396 252.282C401.419 251.851 402.341 251.211 403.103 250.405C404.745 248.728 405.874 246.186 406.491 242.777L423.913 144.374H544.574L519.97 283.625H481.527L500.04 178.472H456.515L444.416 246.771C442.781 256.122 439.211 263.799 433.706 269.803C428.443 275.65 421.849 280.147 414.48 282.913C407.406 285.599 399.905 286.986 392.338 287.009H381.785L387.811 252.911H397.161Z" fill="white"/>
<path d="M589.136 144.272L581.962 184.954H605.437C614.182 184.954 621.834 186.59 628.394 189.863C634.707 192.916 639.997 197.734 643.621 203.732C647.289 210.016 649.15 217.189 649 224.461C649.024 227.688 648.751 230.909 648.185 234.086C646.617 243.346 642.803 252.082 637.077 259.531C631.353 267.033 623.942 273.085 615.444 277.199C606.749 281.438 597.191 283.609 587.516 283.542H525.885L550.489 144.272H589.136ZM603.641 245.384C606.727 242.685 608.693 238.912 609.538 234.068C609.738 232.885 609.84 231.688 609.843 230.489C609.843 226.865 608.751 224.048 606.567 222.039C604.382 220.029 601.238 219.021 597.134 219.015H575.908L570.586 249.425H591.876C596.165 249.586 600.359 248.146 603.641 245.384Z" fill="white"/>
</g>
<defs>
<clipPath id="clip0_1494_98">
<rect width="649" height="287" fill="white"/>
</clipPath>
</defs>
</svg>
