<svg width="1700" height="800" viewBox="0 0 1700 800" fill="none" xmlns="http://www.w3.org/2000/svg">
<g clip-path="url(#clip0_1494_18)">
<rect width="1700" height="800" fill="white"/>
<rect width="1700" height="800" fill="#0000FF"/>
<path d="M982.573 -35.7837L913.476 31.0188L844.403 -35.7837L789 17.7982L858.073 84.624L789 151.426L844.427 205.032L913.5 138.206L982.573 205.008L1037.98 151.426L968.903 84.624L1038 17.8215L982.573 -35.7837Z" stroke="white" stroke-width="2" stroke-miterlimit="10"/>
<path d="M1610.5 -12.5728C1587.82 -12.5728 1566.08 -3.86079 1550.04 11.6465C1534.01 27.1538 1525 48.1862 1525 70.1168C1524.99 80.9773 1527.2 91.7324 1531.5 101.767C1535.79 111.802 1542.09 120.92 1550.03 128.599C1557.97 136.279 1567.4 142.369 1577.77 146.523C1588.15 150.677 1599.27 152.812 1610.5 152.806C1621.73 152.812 1632.85 150.677 1643.23 146.523C1653.6 142.369 1663.03 136.279 1670.97 128.599C1678.91 120.92 1685.21 111.802 1689.5 101.767C1693.8 91.7324 1696.01 80.9773 1696 70.1168C1695.99 48.1932 1686.98 27.1713 1670.94 11.6728C1654.91 -3.82576 1633.17 -12.5321 1610.5 -12.5321M1610.5 39.6864C1618.85 39.6971 1626.85 42.9054 1632.75 48.6088C1638.66 54.3121 1641.98 62.0458 1642.01 70.1168C1642 78.1949 1638.67 85.9391 1632.77 91.6511C1626.86 97.3632 1618.85 100.577 1610.5 100.588C1602.15 100.577 1594.14 97.3632 1588.23 91.6511C1582.33 85.9391 1579 78.1949 1578.99 70.1168C1579.02 62.0458 1582.34 54.3121 1588.25 48.6088C1594.15 42.9054 1602.15 39.6971 1610.5 39.6864Z" stroke="white" stroke-width="2" stroke-miterlimit="10"/>
<path d="M1071.32 -159H1068.68V-150.32H1060V-147.678H1068.68V-138.998H1071.32V-147.678H1080V-150.32H1071.32V-159ZM1071.32 729.528H1068.68V738.208H1060V740.85H1068.68V749.53H1071.32V740.85H1080V738.208H1071.32V729.528ZM1071.32 602.599H1068.68V611.279H1060V613.922H1068.68V622.601H1071.32V613.922H1080V611.279H1071.32V602.599ZM1071.32 475.644H1068.68V484.324H1060V486.967H1068.68V495.646H1071.32V486.967H1080V484.324H1071.32V475.644ZM1071.32 348.716H1068.68V357.395H1060V360.038H1068.68V368.717H1071.32V360.038H1080V357.395H1071.32V348.716ZM1071.32 221.787H1068.68V230.466H1060V233.109H1068.68V241.788H1071.32V233.109H1080V230.466H1071.32V221.787ZM1071.32 94.8578H1068.68V103.537H1060V106.18H1068.68V114.86H1071.32V106.18H1080V103.537H1071.32V94.8578ZM1071.32 -32.0711H1068.68V-23.3916H1060V-20.7488H1068.68V-12.0693H1071.32V-20.7488H1080V-23.3916H1071.32V-32.0711Z" fill="url(#paint0_linear_1494_18)"/>
<path d="M1071.32 729.684H1068.68V738.363H1060V741.006H1068.68V749.685H1071.32V741.006H1080V738.363H1071.32V729.684Z" fill="url(#paint1_linear_1494_18)"/>
<path d="M1171.32 -159H1168.68V-150.32H1160V-147.678H1168.68V-138.998H1171.32V-147.678H1180V-150.32H1171.32V-159ZM1171.32 729.528H1168.68V738.208H1160V740.85H1168.68V749.53H1171.32V740.85H1180V738.208H1171.32V729.528ZM1171.32 602.599H1168.68V611.279H1160V613.922H1168.68V622.601H1171.32V613.922H1180V611.279H1171.32V602.599ZM1171.32 475.644H1168.68V484.324H1160V486.967H1168.68V495.646H1171.32V486.967H1180V484.324H1171.32V475.644ZM1171.32 348.716H1168.68V357.395H1160V360.038H1168.68V368.717H1171.32V360.038H1180V357.395H1171.32V348.716ZM1171.32 221.787H1168.68V230.466H1160V233.109H1168.68V241.788H1171.32V233.109H1180V230.466H1171.32V221.787ZM1171.32 94.8578H1168.68V103.537H1160V106.18H1168.68V114.86H1171.32V106.18H1180V103.537H1171.32V94.8578ZM1171.32 -32.0711H1168.68V-23.3916H1160V-20.7488H1168.68V-12.0693H1171.32V-20.7488H1180V-23.3916H1171.32V-32.0711Z" fill="url(#paint2_linear_1494_18)"/>
<path d="M1171.32 729.684H1168.68V738.363H1160V741.006H1168.68V749.685H1171.32V741.006H1180V738.363H1171.32V729.684Z" fill="url(#paint3_linear_1494_18)"/>
<path d="M1271.32 -159H1268.68V-150.32H1260V-147.678H1268.68V-138.998H1271.32V-147.678H1280V-150.32H1271.32V-159ZM1271.32 729.528H1268.68V738.208H1260V740.85H1268.68V749.53H1271.32V740.85H1280V738.208H1271.32V729.528ZM1271.32 602.599H1268.68V611.279H1260V613.922H1268.68V622.601H1271.32V613.922H1280V611.279H1271.32V602.599ZM1271.32 475.644H1268.68V484.324H1260V486.967H1268.68V495.646H1271.32V486.967H1280V484.324H1271.32V475.644ZM1271.32 348.716H1268.68V357.395H1260V360.038H1268.68V368.717H1271.32V360.038H1280V357.395H1271.32V348.716ZM1271.32 221.787H1268.68V230.466H1260V233.109H1268.68V241.788H1271.32V233.109H1280V230.466H1271.32V221.787ZM1271.32 94.8578H1268.68V103.537H1260V106.18H1268.68V114.86H1271.32V106.18H1280V103.537H1271.32V94.8578ZM1271.32 -32.0711H1268.68V-23.3916H1260V-20.7488H1268.68V-12.0693H1271.32V-20.7488H1280V-23.3916H1271.32V-32.0711Z" fill="url(#paint4_linear_1494_18)"/>
<path d="M1271.32 729.684H1268.68V738.363H1260V741.006H1268.68V749.685H1271.32V741.006H1280V738.363H1271.32V729.684Z" fill="url(#paint5_linear_1494_18)"/>
<path d="M1371.32 -159H1368.68V-150.32H1360V-147.678H1368.68V-138.998H1371.32V-147.678H1380V-150.32H1371.32V-159ZM1371.32 729.528H1368.68V738.208H1360V740.85H1368.68V749.53H1371.32V740.85H1380V738.208H1371.32V729.528ZM1371.32 602.599H1368.68V611.279H1360V613.922H1368.68V622.601H1371.32V613.922H1380V611.279H1371.32V602.599ZM1371.32 475.644H1368.68V484.324H1360V486.967H1368.68V495.646H1371.32V486.967H1380V484.324H1371.32V475.644ZM1371.32 348.716H1368.68V357.395H1360V360.038H1368.68V368.717H1371.32V360.038H1380V357.395H1371.32V348.716ZM1371.32 221.787H1368.68V230.466H1360V233.109H1368.68V241.788H1371.32V233.109H1380V230.466H1371.32V221.787ZM1371.32 94.8578H1368.68V103.537H1360V106.18H1368.68V114.86H1371.32V106.18H1380V103.537H1371.32V94.8578ZM1371.32 -32.0711H1368.68V-23.3916H1360V-20.7488H1368.68V-12.0693H1371.32V-20.7488H1380V-23.3916H1371.32V-32.0711Z" fill="url(#paint6_linear_1494_18)"/>
<path d="M1371.32 729.684H1368.68V738.363H1360V741.006H1368.68V749.685H1371.32V741.006H1380V738.363H1371.32V729.684Z" fill="url(#paint7_linear_1494_18)"/>
<path d="M1471.32 -159H1468.68V-150.32H1460V-147.678H1468.68V-138.998H1471.32V-147.678H1480V-150.32H1471.32V-159ZM1471.32 729.528H1468.68V738.208H1460V740.85H1468.68V749.53H1471.32V740.85H1480V738.208H1471.32V729.528ZM1471.32 602.599H1468.68V611.279H1460V613.922H1468.68V622.601H1471.32V613.922H1480V611.279H1471.32V602.599ZM1471.32 475.644H1468.68V484.324H1460V486.967H1468.68V495.646H1471.32V486.967H1480V484.324H1471.32V475.644ZM1471.32 348.716H1468.68V357.395H1460V360.038H1468.68V368.717H1471.32V360.038H1480V357.395H1471.32V348.716ZM1471.32 221.787H1468.68V230.466H1460V233.109H1468.68V241.788H1471.32V233.109H1480V230.466H1471.32V221.787ZM1471.32 94.8578H1468.68V103.537H1460V106.18H1468.68V114.86H1471.32V106.18H1480V103.537H1471.32V94.8578ZM1471.32 -32.0711H1468.68V-23.3916H1460V-20.7488H1468.68V-12.0693H1471.32V-20.7488H1480V-23.3916H1471.32V-32.0711Z" fill="url(#paint8_linear_1494_18)"/>
<path d="M1471.32 729.684H1468.68V738.363H1460V741.006H1468.68V749.685H1471.32V741.006H1480V738.363H1471.32V729.684Z" fill="url(#paint9_linear_1494_18)"/>
<path d="M1571.32 -159H1568.68V-150.32H1560V-147.678H1568.68V-138.998H1571.32V-147.678H1580V-150.32H1571.32V-159ZM1571.32 729.528H1568.68V738.208H1560V740.85H1568.68V749.53H1571.32V740.85H1580V738.208H1571.32V729.528ZM1571.32 602.599H1568.68V611.279H1560V613.922H1568.68V622.601H1571.32V613.922H1580V611.279H1571.32V602.599ZM1571.32 475.644H1568.68V484.324H1560V486.967H1568.68V495.646H1571.32V486.967H1580V484.324H1571.32V475.644ZM1571.32 348.716H1568.68V357.395H1560V360.038H1568.68V368.717H1571.32V360.038H1580V357.395H1571.32V348.716ZM1571.32 221.787H1568.68V230.466H1560V233.109H1568.68V241.788H1571.32V233.109H1580V230.466H1571.32V221.787ZM1571.32 94.8578H1568.68V103.537H1560V106.18H1568.68V114.86H1571.32V106.18H1580V103.537H1571.32V94.8578ZM1571.32 -32.0711H1568.68V-23.3916H1560V-20.7488H1568.68V-12.0693H1571.32V-20.7488H1580V-23.3916H1571.32V-32.0711Z" fill="url(#paint10_linear_1494_18)"/>
<path d="M1571.32 729.684H1568.68V738.363H1560V741.006H1568.68V749.685H1571.32V741.006H1580V738.363H1571.32V729.684Z" fill="url(#paint11_linear_1494_18)"/>
<path d="M1696 679.391H1609.11V599H1528.89V679.391H1442V753.622H1528.89V800.163H1609.11V753.622H1696V679.391Z" fill="white"/>
</g>
<defs>
<linearGradient id="paint0_linear_1494_18" x1="2153.26" y1="1566.55" x2="1385.01" y2="-126.56" gradientUnits="userSpaceOnUse">
<stop stop-color="white" stop-opacity="0.7"/>
<stop offset="1" stop-color="white" stop-opacity="0.2"/>
</linearGradient>
<linearGradient id="paint1_linear_1494_18" x1="2153.26" y1="1566.55" x2="1385.01" y2="-126.56" gradientUnits="userSpaceOnUse">
<stop stop-color="white" stop-opacity="0.7"/>
<stop offset="1" stop-color="white" stop-opacity="0.2"/>
</linearGradient>
<linearGradient id="paint2_linear_1494_18" x1="2253.26" y1="1566.55" x2="1485.01" y2="-126.56" gradientUnits="userSpaceOnUse">
<stop stop-color="white" stop-opacity="0.7"/>
<stop offset="1" stop-color="white" stop-opacity="0.2"/>
</linearGradient>
<linearGradient id="paint3_linear_1494_18" x1="2253.26" y1="1566.55" x2="1485.01" y2="-126.56" gradientUnits="userSpaceOnUse">
<stop stop-color="white" stop-opacity="0.7"/>
<stop offset="1" stop-color="white" stop-opacity="0.2"/>
</linearGradient>
<linearGradient id="paint4_linear_1494_18" x1="2353.26" y1="1566.55" x2="1585.01" y2="-126.56" gradientUnits="userSpaceOnUse">
<stop stop-color="white" stop-opacity="0.7"/>
<stop offset="1" stop-color="white" stop-opacity="0.2"/>
</linearGradient>
<linearGradient id="paint5_linear_1494_18" x1="2353.26" y1="1566.55" x2="1585.01" y2="-126.56" gradientUnits="userSpaceOnUse">
<stop stop-color="white" stop-opacity="0.7"/>
<stop offset="1" stop-color="white" stop-opacity="0.2"/>
</linearGradient>
<linearGradient id="paint6_linear_1494_18" x1="2453.26" y1="1566.55" x2="1685.01" y2="-126.56" gradientUnits="userSpaceOnUse">
<stop stop-color="white" stop-opacity="0.7"/>
<stop offset="1" stop-color="white" stop-opacity="0.2"/>
</linearGradient>
<linearGradient id="paint7_linear_1494_18" x1="2453.26" y1="1566.55" x2="1685.01" y2="-126.56" gradientUnits="userSpaceOnUse">
<stop stop-color="white" stop-opacity="0.7"/>
<stop offset="1" stop-color="white" stop-opacity="0.2"/>
</linearGradient>
<linearGradient id="paint8_linear_1494_18" x1="2553.26" y1="1566.55" x2="1785.01" y2="-126.56" gradientUnits="userSpaceOnUse">
<stop stop-color="white" stop-opacity="0.7"/>
<stop offset="1" stop-color="white" stop-opacity="0.2"/>
</linearGradient>
<linearGradient id="paint9_linear_1494_18" x1="2553.26" y1="1566.55" x2="1785.01" y2="-126.56" gradientUnits="userSpaceOnUse">
<stop stop-color="white" stop-opacity="0.7"/>
<stop offset="1" stop-color="white" stop-opacity="0.2"/>
</linearGradient>
<linearGradient id="paint10_linear_1494_18" x1="2653.26" y1="1566.55" x2="1885.01" y2="-126.56" gradientUnits="userSpaceOnUse">
<stop stop-color="white" stop-opacity="0.7"/>
<stop offset="1" stop-color="white" stop-opacity="0.2"/>
</linearGradient>
<linearGradient id="paint11_linear_1494_18" x1="2653.26" y1="1566.55" x2="1885.01" y2="-126.56" gradientUnits="userSpaceOnUse">
<stop stop-color="white" stop-opacity="0.7"/>
<stop offset="1" stop-color="white" stop-opacity="0.2"/>
</linearGradient>
<clipPath id="clip0_1494_18">
<rect width="1700" height="800" fill="white"/>
</clipPath>
</defs>
</svg>
